<svg width="24" height="24" viewBox="0 0 24 24" fill="none" xmlns="http://www.w3.org/2000/svg">
<g clip-path="url(#clip0_558_1259)">
<g clip-path="url(#clip1_558_1259)">
<path d="M21.4921 20.7623C21.1407 15.6129 20.7893 10.4636 20.4379 5.31416C20.4166 5.02125 20.169 4.79372 19.8708 4.79372H17.4003C17.1235 2.10526 14.8074 0 11.9988 0C9.19017 0 6.87673 2.10526 6.59986 4.79372H4.10007C3.84184 4.79372 3.6262 4.98987 3.61023 5.24354C3.24285 10.3772 2.87547 15.5083 2.50809 20.6394C2.37764 22.4544 3.84184 24 5.69738 24H18.412C20.1983 24 21.6119 22.5145 21.4921 20.7623ZM11.9988 1.30762C14.0753 1.30762 15.7871 2.82707 16.0533 4.79372H7.9416C8.21048 2.82707 9.9196 1.30762 11.9961 1.30762H11.9988ZM19.6951 22.1458C19.3597 22.4989 18.9045 22.6924 18.412 22.6924H5.69738C5.1756 22.6924 4.69108 22.4858 4.33435 22.1092C3.97761 21.7326 3.80191 21.2435 3.83918 20.731L4.88542 6.10134H6.5759V8.73227C6.5759 9.09317 6.87407 9.38607 7.24145 9.38607C7.60883 9.38607 7.90699 9.09317 7.90699 8.73227V6.10134H16.0985V8.73227C16.0985 9.09317 16.3967 9.38607 16.7641 9.38607C17.1315 9.38607 17.4296 9.09317 17.4296 8.73227V6.10134H19.16L20.1663 20.8486C20.1983 21.3298 20.0332 21.7901 19.6978 22.1432L19.6951 22.1458Z" fill="#636154"/>
</g>
</g>
<defs>
<clipPath id="clip0_558_1259">
<rect width="24" height="24" fill="white"/>
</clipPath>
<clipPath id="clip1_558_1259">
<rect width="19" height="24" fill="white" transform="translate(2.5)"/>
</clipPath>
</defs>
</svg>
