<svg width="24" height="24" viewBox="0 0 24 24" fill="none" xmlns="http://www.w3.org/2000/svg">
<g clip-path="url(#clip0_558_1258)">
<g clip-path="url(#clip1_558_1258)">
<path d="M12 0C5.37337 0 0 5.37337 0 12C0 18.6266 5.37337 24 12 24C18.6266 24 24 18.6266 24 12C24 5.37337 18.6266 0 12 0ZM12 1.20104C17.9556 1.20104 22.799 6.047 22.799 12C22.799 14.2559 22.1018 16.3525 20.9138 18.0862C18.5614 15.7467 15.3708 14.4178 12.0339 14.4178C8.69713 14.4178 5.46997 15.7598 3.11227 18.1253C1.90862 16.3838 1.19843 14.2715 1.19843 11.9974C1.20104 6.04439 6.04439 1.20104 12 1.20104ZM12 22.799C8.75196 22.799 5.83812 21.3551 3.8564 19.0783C5.92689 16.9452 8.82768 15.6162 12.0366 15.6162C15.2454 15.6162 18.1097 16.9269 20.1802 19.0392C18.1984 21.3368 15.2689 22.7963 12.0026 22.7963L12 22.799Z" fill="#636154"/>
<path d="M12.0001 13.1126C14.6503 13.1126 16.7991 10.9637 16.7991 8.3136C16.7991 5.66347 14.6503 3.51465 12.0001 3.51465C9.35 3.51465 7.20117 5.66347 7.20117 8.3136C7.20117 10.9637 9.35 13.1126 12.0001 13.1126ZM12.0001 4.71308C13.9845 4.71308 15.6006 6.32927 15.6006 8.3136C15.6006 10.2979 13.9845 11.9141 12.0001 11.9141C10.0158 11.9141 8.3996 10.2979 8.3996 8.3136C8.3996 6.32927 10.0158 4.71308 12.0001 4.71308Z" fill="#636154"/>
</g>
</g>
<defs>
<clipPath id="clip0_558_1258">
<rect width="24" height="24" fill="white"/>
</clipPath>
<clipPath id="clip1_558_1258">
<rect width="24" height="24" fill="white"/>
</clipPath>
</defs>
</svg>
